<svg xmlns="http://www.w3.org/2000/svg" xmlns:xlink="http://www.w3.org/1999/xlink" version="1.1" x="0px" y="0px" width="100px" height="100px" viewBox="0 0 100 100" enable-background="new 0 0 100 100" xml:space="preserve">
<g id="Captions">
</g>
<g id="Your_Icon">
	<path style="fill: rgba(48, 165, 231, 1.0000);" fill-rule="evenodd" clip-rule="evenodd" d="M62.875,37.847c3.87,1.936,8.102,2.906,12.458,2.906   c3.746,0,7.616-0.728,11.126-2.299v14.873c-3.995,1.938-6.652,2.542-11.126,2.542c-1.332,0-2.664-0.124-3.989-0.243V7.617   c1.325,0,2.657,0.125,3.989,0.243c4.96,0,6.527-0.361,11.126-2.053v14.872c-3.51,1.45-7.38,2.296-11.126,2.296   c-4.956,0-7.984-0.725-12.458-2.9c-3.386-1.574-5.557-2.178-9.31-2.178c-3.746,0-6.042,0.604-9.309,2.178   c-3.989,1.936-8.221,2.9-12.577,2.9c-5.438,0-10.883-1.693-15.601-4.717l0.125,17.896c4.953,3.146,9.67,4.599,15.476,4.599   c5.078,0,7.984-0.728,12.459-2.906c3.385-1.568,5.681-2.175,9.427-2.175C57.318,35.672,59.489,36.279,62.875,37.847 M43.049,53.326   c-3.628,1.695-4.231,1.938-8.223,2.418V7.617c3.624-0.361,7.252-1.329,10.52-2.9c3.024-1.45,4.959-1.935,8.22-1.935v48.126   C49.819,50.908,46.31,51.634,43.049,53.326 M44.139,55.744c-4.475,2.178-7.496,2.781-12.459,2.781   c-5.924,0-10.759-4.11-15.719-7.256L16.079,100h-5.32L10.641,0h5.438c4.6,3.267,10.162,5.078,15.844,5.078   c4.231,0,8.463-0.964,12.216-2.899C47.523,0.485,49.819,0,53.565,0c3.753,0,5.924,0.485,9.31,2.178   c4.599,2.178,7.502,2.899,12.576,2.899c5.32,0,9.191-1.089,13.908-3.746l-0.118,53.69c-4.717,2.539-8.47,3.504-13.79,3.504   c-5.074,0-7.978-0.604-12.576-2.781c-2.9-1.45-6.042-2.176-9.31-2.176C50.305,53.568,47.038,54.294,44.139,55.744"/>
</g>
</svg>
