<svg xmlns="http://www.w3.org/2000/svg" xmlns:xlink="http://www.w3.org/1999/xlink" version="1.1" id="Layer_1" x="0px" y="0px" width="100px" height="100px" viewBox="0 0 100 100" enable-background="new 0 0 100 100" xml:space="preserve">
<ellipse style="fill: rgba(48, 165, 231, 1.0000);" cx="50" cy="19.724" rx="30" ry="11.262"/>
<path style="fill: rgba(48, 165, 231, 1.0000);" d="M20,39.57V24.524c0,0,0.093,11.169,30,11.169c29.908,0,30-11.169,30-11.169v15.231c0,0-0.186,11.906-30.092,11.906  C20,51.661,20,39.57,20,39.57z"/>
<path style="fill: rgba(48, 165, 231, 1.0000);" d="M20,59.784V44.739c0,0,0.093,11.168,30,11.168c29.908,0,30-11.168,30-11.168v15.23c0,0-0.186,11.908-30.092,11.908  C20,71.877,20,59.784,20,59.784z"/>
<path style="fill: rgba(48, 165, 231, 1.0000);" d="M20,79.446V64.398c0,0,0.093,11.171,30,11.171c29.908,0,30-11.171,30-11.171v15.232c0,0-0.186,11.906-30.092,11.906  C20,91.537,20,79.446,20,79.446z"/>
</svg>
