<svg xmlns="http://www.w3.org/2000/svg" xmlns:xlink="http://www.w3.org/1999/xlink" version="1.1" id="Layer_1" x="0px" y="0px" width="87.874px" height="54.734px" viewBox="0 0 87.874 54.734" enable-background="new 0 0 87.874 54.734" xml:space="preserve">
<g>
	<path fill="rgba(48, 165, 231, 1.0000)" d="M25.512,51.856c0,1.587-1.321,2.878-2.952,2.878H2.952C1.321,54.734,0,53.444,0,51.856V40.604   c0-1.59,1.321-2.879,2.952-2.879H22.56c1.631,0,2.952,1.289,2.952,2.879V51.856z"/>
	<path fill="rgba(48, 165, 231, 1.0000)" d="M56.692,51.856c0,1.587-1.321,2.878-2.952,2.878H34.133c-1.631,0-2.952-1.29-2.952-2.878V40.604   c0-1.59,1.321-2.879,2.952-2.879H53.74c1.631,0,2.952,1.289,2.952,2.879V51.856z"/>
	<path fill="rgba(48, 165, 231, 1.0000)" d="M87.874,51.856c0,1.587-1.321,2.878-2.952,2.878H65.314c-1.631,0-2.951-1.29-2.951-2.878V40.604   c0-1.59,1.32-2.879,2.951-2.879h19.607c1.631,0,2.952,1.289,2.952,2.879V51.856z"/>
	<path fill="rgba(48, 165, 231, 1.0000)" d="M58.381,16.407c0,1.847-1.496,3.344-3.342,3.344H32.834c-1.846,0-3.342-1.497-3.342-3.344V3.344   C29.494,1.497,30.989,0,32.834,0h22.205c1.846,0,3.342,1.497,3.342,3.344V16.407z"/>
	<polygon fill="rgba(48, 165, 231, 1.0000)" points="45.437,26.735 45.437,21.242 42.437,21.242 42.437,26.735 11.256,26.735 11.256,35.985    14.256,35.985 14.256,29.735 42.437,29.735 42.437,35.985 45.437,35.985 45.437,29.735 73.619,29.735 73.619,35.985 76.619,35.985    76.619,26.735  "/>
</g>
</svg>
