<svg xmlns="http://www.w3.org/2000/svg" xmlns:xlink="http://www.w3.org/1999/xlink" version="1.1" id="Layer_1" x="0px" y="0px" width="100px" height="100px" viewBox="0 0 100 100" enable-background="new 0 0 100 100" xml:space="preserve">
<path d="M54.366,0.753c-11.01,0-20.201,7.741-22.456,18.074L18.194,23.27l13.263,2.241C32.451,35.629,42.549,28.3,54.604,28.3  c12.701,0,22.758,8.149,22.758-4.551C77.362,11.049,67.065,0.753,54.366,0.753z M54.126,20.994c-1.653,0-2.993-1.34-2.993-2.994  s1.34-2.995,2.993-2.995c1.655,0,2.994,1.341,2.994,2.995S55.781,20.994,54.126,20.994z"/>
<ellipse cx="69.337" cy="67.228" rx="20.481" ry="31.62"/>
<path d="M37.433,35.889l-6.54-4.654l0.212,2.816c-10.743,0.976-19.261,14.73-19.261,31.56c0,17.464,9.17,31.62,20.482,31.62  c0.975,0,1.934-0.112,2.875-0.315C25.25,94.756,17.593,81.568,17.593,65.61c0-13.759,5.698-25.44,13.646-29.787l0.521,6.923  l5.572-5.078l6.493,5.501l0.696-12.254L37.433,35.889z"/>
</svg>