<svg xmlns="http://www.w3.org/2000/svg" xmlns:xlink="http://www.w3.org/1999/xlink" version="1.1" x="0px" y="0px" width="100px" height="100px" viewBox="0 0 100 100" enable-background="new 0 0 100 100" xml:space="preserve">
<g id="guides">
</g>
<g id="Captions">
</g>
<g id="Your_Icon">
</g>
<g id="Layer_3">
</g>
<g id="Layer_5">
</g>
<g id="Layer_6">
</g>
<g id="Layer_4">
</g>
<g id="Layer_16">
</g>
<g id="Layer_15">
</g>
<g id="Layer_14">
</g>
<g id="Layer_13">
</g>
<g id="Layer_12">
</g>
<g id="Layer_11">
</g>
<g id="Layer_10">
</g>
<g id="Layer_9">
	<g>
		<path style="fill: rgba(48, 165, 231, 1.0000);" d="M60.131,65.524c-0.346-0.889-0.615-1.889-0.806-3c-0.19-1.112-0.285-2.164-0.285-3.157c0-1.573,0.157-3.012,0.467-4.311    c0.312-1.302,0.779-2.525,1.405-3.671c0.622-1.146,1.402-2.241,2.336-3.285c0.937-1.041,2.028-2.076,3.275-3.101    c1.315-1.097,2.467-2.115,3.456-3.058c0.985-0.938,1.826-1.88,2.52-2.82c0.692-0.941,1.212-1.915,1.557-2.926    c0.349-1.009,0.522-2.13,0.522-3.36c0-1.061-0.192-2.045-0.572-2.952c-0.381-0.904-0.927-1.686-1.636-2.333    c-0.712-0.65-1.577-1.164-2.6-1.54c-1.022-0.377-2.157-0.565-3.405-0.565c-2.701,0-5.505,0.558-8.415,1.668    c-2.911,1.112-5.666,2.796-8.265,5.055V16.723c2.668-1.575,5.577-2.754,8.73-3.542C61.567,12.393,64.825,12,68.185,12    c3.223,0,6.22,0.353,8.99,1.053c2.772,0.701,5.188,1.805,7.25,3.31c2.062,1.505,3.671,3.43,4.831,5.773    C90.418,24.479,91,27.293,91,30.577c0,2.085-0.243,3.976-0.731,5.671c-0.482,1.693-1.193,3.293-2.128,4.797    c-0.938,1.508-2.098,2.951-3.484,4.338c-1.384,1.383-2.978,2.814-4.78,4.286c-1.211,0.993-2.276,1.914-3.195,2.771    c-0.918,0.853-1.68,1.701-2.286,2.539c-0.605,0.838-1.063,1.727-1.377,2.668c-0.311,0.941-0.468,2.01-0.468,3.206    c0,0.821,0.113,1.662,0.338,2.515c0.225,0.857,0.528,1.573,0.909,2.156H60.131z M67.718,88c-2.771,0-5.075-0.818-6.911-2.461    c-1.836-1.71-2.754-3.728-2.754-6.055c0-2.395,0.918-4.397,2.754-6.005s4.14-2.412,6.911-2.412c2.737,0,5.006,0.805,6.809,2.412    c1.8,1.574,2.701,3.577,2.701,6.005c0,2.462-0.885,4.499-2.649,6.107C72.775,87.196,70.489,88,67.718,88z"/>
	</g>
	<path style="fill: rgba(48, 165, 231, 1.0000);" d="M11,66.693v-6.784l32.558-21.685l4.457,9.005l-18.509,12.68l-7.616,3.207l7.534,2.847l18.967,12.501l-4.384,9.001   L11,66.693z"/>
</g>
</svg>
