<svg xmlns:dc="http://purl.org/dc/elements/1.1/" xmlns:cc="http://creativecommons.org/ns#" xmlns:rdf="http://www.w3.org/1999/02/22-rdf-syntax-ns#" xmlns:svg="http://www.w3.org/2000/svg" xmlns="http://www.w3.org/2000/svg" xmlns:sodipodi="http://sodipodi.sourceforge.net/DTD/sodipodi-0.dtd" xmlns:inkscape="http://www.inkscape.org/namespaces/inkscape" width="100" height="100" viewBox="0 0 80 80" version="1.1" id="svg2" inkscape:version="0.48.2 r9819" sodipodi:docname="server np.svg">
  <metadata id="metadata10">
    <rdf:RDF>
      <cc:Work rdf:about="">
        <dc:format>image/svg+xml</dc:format>
        <dc:type rdf:resource="http://purl.org/dc/dcmitype/StillImage"/>
        <dc:title/>
      </cc:Work>
    </rdf:RDF>
  </metadata>
  <defs id="defs8"/>
  <sodipodi:namedview pagecolor="#ffffff" bordercolor="#666666" borderopacity="1" objecttolerance="10" gridtolerance="10" guidetolerance="10" inkscape:pageopacity="0" inkscape:pageshadow="2" inkscape:window-width="1600" inkscape:window-height="853" id="namedview6" showgrid="true" inkscape:zoom="7.3114841" inkscape:cx="104.08241" inkscape:cy="54.325921" inkscape:window-x="-4" inkscape:window-y="-4" inkscape:window-maximized="1" inkscape:current-layer="svg2" inkscape:snap-grids="false">
    <inkscape:grid type="xygrid" id="grid3807"/>
  </sodipodi:namedview>
  <path style="fill: rgba(48, 165, 231, 1.0000);stroke:none;stroke-width:1px;stroke-linecap:butt;stroke-linejoin:miter;stroke-opacity:1" d="M 50 10 L 20.75 29.5 L 44.84375 29.5 L 72.15625 10 L 50 10 z M 73.84375 10 L 45.5 30.25 L 45.5 89.59375 L 75 65 L 75 10 L 73.84375 10 z M 71.375 17.1875 C 71.49232 17.217964 71.5625 17.320976 71.5625 17.5 C 71.5625 17.858048 71.264298 18.359925 70.90625 18.625 C 70.548202 18.890075 70.25 18.826798 70.25 18.46875 C 70.25 18.110702 70.548202 17.608825 70.90625 17.34375 C 71.085274 17.211212 71.25768 17.157036 71.375 17.1875 z M 69.4375 18.625 C 69.55482 18.655464 69.625 18.758476 69.625 18.9375 C 69.625 19.295548 69.326798 19.797425 68.96875 20.0625 C 68.610702 20.327575 68.3125 20.264298 68.3125 19.90625 C 68.3125 19.548202 68.610702 19.046325 68.96875 18.78125 C 69.147774 18.648712 69.32018 18.594536 69.4375 18.625 z M 71.375 19.125 C 71.49232 19.155464 71.5625 19.258476 71.5625 19.4375 C 71.5625 19.795548 71.264298 20.328675 70.90625 20.59375 C 70.548202 20.858825 70.25 20.764298 70.25 20.40625 C 70.25 20.048202 70.548202 19.546325 70.90625 19.28125 C 71.085274 19.148712 71.25768 19.094536 71.375 19.125 z M 67.46875 20.0625 C 67.58607 20.092964 67.65625 20.195976 67.65625 20.375 C 67.65625 20.733048 67.389298 21.266175 67.03125 21.53125 C 66.673202 21.796325 66.375 21.701798 66.375 21.34375 C 66.375 20.985702 66.673202 20.483825 67.03125 20.21875 C 67.210274 20.086212 67.35143 20.032036 67.46875 20.0625 z M 69.4375 20.5625 C 69.55482 20.592964 69.625 20.727226 69.625 20.90625 C 69.625 21.264298 69.326798 21.766175 68.96875 22.03125 C 68.610702 22.296325 68.3125 22.201798 68.3125 21.84375 C 68.3125 21.485702 68.610702 20.983825 68.96875 20.71875 C 69.147774 20.586212 69.32018 20.532036 69.4375 20.5625 z M 71.3125 21.0625 C 71.459479 21.077068 71.5625 21.204848 71.5625 21.40625 C 71.5625 21.764298 71.264298 22.266175 70.90625 22.53125 C 70.548202 22.796325 70.25 22.701798 70.25 22.34375 C 70.25 21.985702 70.548202 21.483825 70.90625 21.21875 C 70.995762 21.152481 71.078688 21.118366 71.15625 21.09375 C 71.214422 21.075288 71.263507 21.057644 71.3125 21.0625 z M 65.53125 21.5 C 65.64857 21.530464 65.71875 21.633476 65.71875 21.8125 C 65.71875 22.170548 65.420548 22.703675 65.0625 22.96875 C 64.704452 23.233825 64.4375 23.139298 64.4375 22.78125 C 64.4375 22.423202 64.704452 21.921325 65.0625 21.65625 C 65.241524 21.523712 65.41393 21.469536 65.53125 21.5 z M 67.46875 22 C 67.58607 22.030464 67.65625 22.164726 67.65625 22.34375 C 67.65625 22.701798 67.389298 23.203675 67.03125 23.46875 C 66.673202 23.733825 66.375 23.639298 66.375 23.28125 C 66.375 22.923202 66.673202 22.421325 67.03125 22.15625 C 67.210274 22.023712 67.35143 21.969536 67.46875 22 z M 69.375 22.5 C 69.521979 22.514568 69.625 22.642348 69.625 22.84375 C 69.625 23.201798 69.326798 23.703675 68.96875 23.96875 C 68.610702 24.233825 68.3125 24.170548 68.3125 23.8125 C 68.3125 23.454452 68.610702 22.921325 68.96875 22.65625 C 69.058262 22.589981 69.141188 22.555866 69.21875 22.53125 C 69.276922 22.512788 69.326007 22.495144 69.375 22.5 z M 63.59375 22.9375 C 63.71107 22.967964 63.78125 23.102226 63.78125 23.28125 C 63.78125 23.639298 63.483048 24.141175 63.125 24.40625 C 62.766952 24.671325 62.46875 24.576798 62.46875 24.21875 C 62.46875 23.860702 62.766952 23.358825 63.125 23.09375 C 63.304024 22.961212 63.47643 22.907036 63.59375 22.9375 z M 71.3125 23 C 71.459479 23.014568 71.5625 23.142348 71.5625 23.34375 C 71.5625 23.701798 71.264298 24.203675 70.90625 24.46875 C 70.548202 24.733825 70.25 24.670548 70.25 24.3125 C 70.25 23.954452 70.548202 23.452575 70.90625 23.1875 C 70.995762 23.121231 71.078688 23.055866 71.15625 23.03125 C 71.214422 23.012788 71.263507 22.995144 71.3125 23 z M 65.5 23.4375 C 65.63819 23.452068 65.71875 23.579848 65.71875 23.78125 C 65.71875 24.139298 65.420548 24.641175 65.0625 24.90625 C 64.704452 25.171325 64.4375 25.076798 64.4375 24.71875 C 64.4375 24.360702 64.704452 23.858825 65.0625 23.59375 C 65.152012 23.527481 65.266188 23.493366 65.34375 23.46875 C 65.401922 23.450288 65.453937 23.432644 65.5 23.4375 z M 67.4375 23.9375 C 67.57569 23.952068 67.65625 24.079848 67.65625 24.28125 C 67.65625 24.639298 67.389298 25.141175 67.03125 25.40625 C 66.673202 25.671325 66.375 25.608048 66.375 25.25 C 66.375 24.891952 66.673202 24.358825 67.03125 24.09375 C 67.120762 24.027481 67.203688 23.993366 67.28125 23.96875 C 67.339422 23.950288 67.391437 23.932644 67.4375 23.9375 z M 61.65625 24.375 C 61.77357 24.405464 61.84375 24.539726 61.84375 24.71875 C 61.84375 25.076798 61.545548 25.578675 61.1875 25.84375 C 60.829452 26.108825 60.53125 26.014298 60.53125 25.65625 C 60.53125 25.298202 60.829452 24.796325 61.1875 24.53125 C 61.366524 24.398712 61.53893 24.344536 61.65625 24.375 z M 69.375 24.4375 C 69.521979 24.452068 69.625 24.579848 69.625 24.78125 C 69.625 25.139298 69.326798 25.641175 68.96875 25.90625 C 68.610702 26.171325 68.3125 26.108048 68.3125 25.75 C 68.3125 25.391952 68.610702 24.890075 68.96875 24.625 C 69.058262 24.558731 69.141188 24.493366 69.21875 24.46875 C 69.276922 24.450288 69.326007 24.432644 69.375 24.4375 z M 63.53125 24.875 C 63.678229 24.889568 63.78125 25.017348 63.78125 25.21875 C 63.78125 25.576798 63.483048 26.078675 63.125 26.34375 C 62.766952 26.608825 62.46875 26.545548 62.46875 26.1875 C 62.46875 25.829452 62.766952 25.296325 63.125 25.03125 C 63.214512 24.964981 63.297438 24.930866 63.375 24.90625 C 63.433172 24.887788 63.482257 24.870144 63.53125 24.875 z M 71.3125 24.9375 C 71.459479 24.952068 71.5625 25.079848 71.5625 25.28125 C 71.5625 25.639298 71.264298 26.141175 70.90625 26.40625 C 70.548202 26.671325 70.25 26.608048 70.25 26.25 C 70.25 25.891952 70.548202 25.390075 70.90625 25.125 C 70.995762 25.058731 71.078688 24.993366 71.15625 24.96875 C 71.214422 24.950288 71.263507 24.932644 71.3125 24.9375 z M 65.5 25.375 C 65.63819 25.389568 65.71875 25.517348 65.71875 25.71875 C 65.71875 26.076798 65.420548 26.578675 65.0625 26.84375 C 64.704452 27.108825 64.4375 27.045548 64.4375 26.6875 C 64.4375 26.329452 64.704452 25.827575 65.0625 25.5625 C 65.152012 25.496231 65.266188 25.430866 65.34375 25.40625 C 65.401922 25.387788 65.453937 25.370144 65.5 25.375 z M 67.4375 25.875 C 67.57569 25.889568 67.65625 26.017348 67.65625 26.21875 C 67.65625 26.576798 67.389298 27.078675 67.03125 27.34375 C 66.673202 27.608825 66.375 27.545548 66.375 27.1875 C 66.375 26.829452 66.673202 26.327575 67.03125 26.0625 C 67.120762 25.996231 67.203688 25.930866 67.28125 25.90625 C 67.339422 25.887788 67.391437 25.870144 67.4375 25.875 z M 61.59375 26.3125 C 61.740729 26.327068 61.84375 26.454848 61.84375 26.65625 C 61.84375 27.014298 61.545548 27.516175 61.1875 27.78125 C 60.829452 28.046325 60.53125 27.983048 60.53125 27.625 C 60.53125 27.266952 60.829452 26.733825 61.1875 26.46875 C 61.277012 26.402481 61.359938 26.368366 61.4375 26.34375 C 61.495672 26.325288 61.544757 26.307644 61.59375 26.3125 z M 69.4375 26.40625 C 69.55482 26.436714 69.625 26.539726 69.625 26.71875 C 69.625 27.076798 69.326798 27.578675 68.96875 27.84375 C 68.610702 28.108825 68.3125 28.045548 68.3125 27.6875 C 68.3125 27.329452 68.610702 26.827575 68.96875 26.5625 C 69.147774 26.429962 69.32018 26.375786 69.4375 26.40625 z M 63.53125 26.8125 C 63.678229 26.827068 63.78125 26.954848 63.78125 27.15625 C 63.78125 27.514298 63.483048 28.016175 63.125 28.28125 C 62.766952 28.546325 62.46875 28.483048 62.46875 28.125 C 62.46875 27.766952 62.766952 27.265075 63.125 27 C 63.214512 26.933731 63.297438 26.868366 63.375 26.84375 C 63.433172 26.825288 63.482257 26.807644 63.53125 26.8125 z M 65.5 27.3125 C 65.63819 27.327068 65.71875 27.454848 65.71875 27.65625 C 65.71875 28.014298 65.420548 28.516175 65.0625 28.78125 C 64.704452 29.046325 64.4375 28.983048 64.4375 28.625 C 64.4375 28.266952 64.704452 27.765075 65.0625 27.5 C 65.152012 27.433731 65.266188 27.368366 65.34375 27.34375 C 65.401922 27.325288 65.453937 27.307644 65.5 27.3125 z M 67.46875 27.84375 C 67.58607 27.874214 67.65625 27.977226 67.65625 28.15625 C 67.65625 28.514298 67.389298 29.016175 67.03125 29.28125 C 66.673202 29.546325 66.375 29.483048 66.375 29.125 C 66.375 28.766952 66.673202 28.265075 67.03125 28 C 67.210274 27.867462 67.35143 27.813286 67.46875 27.84375 z M 61.59375 28.25 C 61.740729 28.264568 61.84375 28.392348 61.84375 28.59375 C 61.84375 28.951798 61.545548 29.453675 61.1875 29.71875 C 60.829452 29.983825 60.53125 29.920548 60.53125 29.5625 C 60.53125 29.204452 60.829452 28.702575 61.1875 28.4375 C 61.277012 28.371231 61.359938 28.305866 61.4375 28.28125 C 61.495672 28.262788 61.544757 28.245144 61.59375 28.25 z M 63.59375 28.78125 C 63.71107 28.811714 63.78125 28.914726 63.78125 29.09375 C 63.78125 29.451798 63.483048 29.953675 63.125 30.21875 C 62.766952 30.483825 62.46875 30.420548 62.46875 30.0625 C 62.46875 29.704452 62.766952 29.202575 63.125 28.9375 C 63.304024 28.804962 63.47643 28.750786 63.59375 28.78125 z M 65.53125 29.28125 C 65.64857 29.311714 65.71875 29.414726 65.71875 29.59375 C 65.71875 29.951798 65.420548 30.484925 65.0625 30.75 C 64.704452 31.015075 64.4375 30.920548 64.4375 30.5625 C 64.4375 30.204452 64.704452 29.702575 65.0625 29.4375 C 65.241524 29.304962 65.41393 29.250786 65.53125 29.28125 z M 61.65625 30.21875 C 61.77357 30.249214 61.84375 30.352226 61.84375 30.53125 C 61.84375 30.889298 61.545548 31.391175 61.1875 31.65625 C 60.829452 31.921325 60.53125 31.858048 60.53125 31.5 C 60.53125 31.141952 60.829452 30.640075 61.1875 30.375 C 61.366524 30.242462 61.53893 30.188286 61.65625 30.21875 z M 20 30.5 L 20 90 L 44.5 90 L 44.5 30.5 L 20 30.5 z M 63.59375 30.71875 C 63.71107 30.749214 63.78125 30.883476 63.78125 31.0625 C 63.78125 31.420548 63.483048 31.922425 63.125 32.1875 C 62.766952 32.452575 62.46875 32.358048 62.46875 32 C 62.46875 31.641952 62.766952 31.140075 63.125 30.875 C 63.304024 30.742462 63.47643 30.688286 63.59375 30.71875 z M 61.65625 32.15625 C 61.77357 32.186714 61.84375 32.320976 61.84375 32.5 C 61.84375 32.858048 61.545548 33.359925 61.1875 33.625 C 60.829452 33.890075 60.53125 33.795548 60.53125 33.4375 C 60.53125 33.079452 60.829452 32.577575 61.1875 32.3125 C 61.366524 32.179962 61.53893 32.125786 61.65625 32.15625 z M 23 35 L 41 35 L 41 38 L 23 38 L 23 35 z M 23 39 L 41 39 L 41 42 L 23 42 L 23 39 z M 23 43 L 41 43 L 41 46 L 23 46 L 23 43 z M 23 47 L 41 47 L 41 50 L 23 50 L 23 47 z M 38.5 51 A 0.31325759 0.31325759 0 0 1 38.71875 51.0625 A 0.31325759 0.31325759 0 0 1 38.75 51.09375 A 0.31325759 0.31325759 0 0 1 38.78125 51.125 A 0.31325759 0.31325759 0 0 1 38.84375 51.34375 L 38.84375 53.21875 A 0.31325759 0.31325759 0 0 1 38.78125 53.40625 A 0.31325759 0.31325759 0 0 1 38.75 53.4375 A 0.31325759 0.31325759 0 0 1 38.65625 53.5 A 0.31325759 0.31325759 0 0 1 38.34375 53.46875 A 0.31325759 0.31325759 0 0 1 38.3125 53.4375 A 0.31325759 0.31325759 0 0 1 38.28125 53.40625 A 0.31325759 0.31325759 0 0 1 38.21875 53.21875 L 38.21875 51.34375 A 0.31325759 0.31325759 0 0 1 38.28125 51.15625 A 0.31325759 0.31325759 0 0 1 38.3125 51.125 A 0.31325759 0.31325759 0 0 1 38.34375 51.09375 A 0.31325759 0.31325759 0 0 1 38.46875 51.03125 A 0.31325759 0.31325759 0 0 1 38.5 51 z M 37.6875 51.875 A 0.33108781 0.33108781 0 0 1 37.8125 52.53125 C 37.712876 52.605407 37.604825 52.71245 37.53125 52.8125 C 37.119109 53.372944 37.252056 54.150359 37.8125 54.5625 C 38.372942 54.974641 39.150359 54.841694 39.5625 54.28125 C 39.974641 53.720806 39.841694 52.943391 39.28125 52.53125 A 0.31325759 0.31325759 0 0 1 39.25 52.5 A 0.31325759 0.31325759 0 0 1 39.1875 52.40625 A 0.31325759 0.31325759 0 0 1 39.1875 52.15625 A 0.31325759 0.31325759 0 0 1 39.25 52.0625 A 0.31325759 0.31325759 0 0 1 39.28125 52.03125 A 0.31325759 0.31325759 0 0 1 39.4375 51.96875 A 0.31325759 0.31325759 0 0 1 39.65625 52.03125 C 40.489444 52.643966 40.675218 53.823057 40.0625 54.65625 C 39.449784 55.489443 38.270693 55.675218 37.4375 55.0625 C 36.604306 54.449782 36.418532 53.270694 37.03125 52.4375 C 37.141615 52.287424 37.256816 52.142488 37.40625 52.03125 A 0.31596724 0.31596724 0 0 1 37.46875 52 A 0.31596724 0.31596724 0 0 1 37.5 51.96875 A 0.32173844 0.32173844 0 0 1 37.53125 51.9375 A 0.32849681 0.32849681 0 0 1 37.59375 51.90625 A 0.33108781 0.33108781 0 0 1 37.6875 51.875 z M 25 52 C 25.552285 52 26 52.447715 26 53 C 26 53.552285 25.552285 54 25 54 C 24.447715 54 24 53.552285 24 53 C 24 52.447715 24.447715 52 25 52 z M 27.9375 52 C 28.489785 52 28.9375 52.447715 28.9375 53 C 28.9375 53.552285 28.489785 54 27.9375 54 C 27.385215 54 26.9375 53.552285 26.9375 53 C 26.9375 52.447715 27.385215 52 27.9375 52 z M 21.625 74.5 A 0.52871638 0.52871638 0 0 1 21.65625 74.5 A 0.52384546 0.52384546 0 0 1 21.6875 74.5 A 0.51939907 0.51939907 0 0 1 21.71875 74.5 A 0.5153882 0.5153882 0 0 1 21.75 74.5 A 0.5118231 0.5118231 0 0 1 21.78125 74.5 A 0.50606671 0.50606671 0 0 1 21.84375 74.5 A 0.50219246 0.50219246 0 0 1 21.90625 74.5 A 0.50005 0.50005 0 0 1 22 74.5 L 42 74.5 A 0.50005 0.50005 0 1 1 42 75.5 L 22 75.5 A 0.52871638 0.52871638 0 0 1 21.625 74.5 z M 21.625 76.5 A 0.52871638 0.52871638 0 0 1 21.65625 76.5 A 0.52384546 0.52384546 0 0 1 21.6875 76.5 A 0.51939907 0.51939907 0 0 1 21.71875 76.5 A 0.5153882 0.5153882 0 0 1 21.75 76.5 A 0.5118231 0.5118231 0 0 1 21.78125 76.5 A 0.50606671 0.50606671 0 0 1 21.84375 76.5 A 0.50219246 0.50219246 0 0 1 21.90625 76.5 A 0.50005 0.50005 0 0 1 22 76.5 L 42 76.5 A 0.50005 0.50005 0 1 1 42 77.5 L 22 77.5 A 0.52871638 0.52871638 0 0 1 21.625 76.5 z M 21.625 78.5 A 0.52871638 0.52871638 0 0 1 21.65625 78.5 A 0.52384546 0.52384546 0 0 1 21.6875 78.5 A 0.51939907 0.51939907 0 0 1 21.71875 78.5 A 0.5153882 0.5153882 0 0 1 21.75 78.5 A 0.5118231 0.5118231 0 0 1 21.78125 78.5 A 0.50606671 0.50606671 0 0 1 21.84375 78.5 A 0.50219246 0.50219246 0 0 1 21.90625 78.5 A 0.50005 0.50005 0 0 1 22 78.5 L 42 78.5 A 0.50005 0.50005 0 1 1 42 79.5 L 22 79.5 A 0.52871638 0.52871638 0 0 1 21.625 78.5 z M 21.625 80.5 A 0.52871638 0.52871638 0 0 1 21.65625 80.5 A 0.52384546 0.52384546 0 0 1 21.6875 80.5 A 0.51939907 0.51939907 0 0 1 21.71875 80.5 A 0.5153882 0.5153882 0 0 1 21.75 80.5 A 0.5118231 0.5118231 0 0 1 21.78125 80.5 A 0.50606671 0.50606671 0 0 1 21.84375 80.5 A 0.50219246 0.50219246 0 0 1 21.90625 80.5 A 0.50005 0.50005 0 0 1 22 80.5 L 42 80.5 A 0.50005 0.50005 0 1 1 42 81.5 L 22 81.5 A 0.52871638 0.52871638 0 0 1 21.625 80.5 z M 21.625 82.5 A 0.52871638 0.52871638 0 0 1 21.65625 82.5 A 0.52384546 0.52384546 0 0 1 21.6875 82.5 A 0.51939907 0.51939907 0 0 1 21.71875 82.5 A 0.5153882 0.5153882 0 0 1 21.75 82.5 A 0.5118231 0.5118231 0 0 1 21.78125 82.5 A 0.50606671 0.50606671 0 0 1 21.84375 82.5 A 0.50219246 0.50219246 0 0 1 21.90625 82.5 A 0.50005 0.50005 0 0 1 22 82.5 L 42 82.5 A 0.50005 0.50005 0 1 1 42 83.5 L 22 83.5 A 0.52871638 0.52871638 0 0 1 21.625 82.5 z M 21.625 84.5 A 0.52871638 0.52871638 0 0 1 21.65625 84.5 A 0.52384546 0.52384546 0 0 1 21.6875 84.5 A 0.51939907 0.51939907 0 0 1 21.71875 84.5 A 0.5153882 0.5153882 0 0 1 21.75 84.5 A 0.5118231 0.5118231 0 0 1 21.78125 84.5 A 0.50606671 0.50606671 0 0 1 21.84375 84.5 A 0.50219246 0.50219246 0 0 1 21.90625 84.5 A 0.50005 0.50005 0 0 1 22 84.5 L 42 84.5 A 0.50005 0.50005 0 1 1 42 85.5 L 22 85.5 A 0.52871638 0.52871638 0 0 1 21.625 84.5 z M 21.625 86.5 A 0.52871638 0.52871638 0 0 1 21.65625 86.5 A 0.52384546 0.52384546 0 0 1 21.6875 86.5 A 0.51939907 0.51939907 0 0 1 21.71875 86.5 A 0.5153882 0.5153882 0 0 1 21.75 86.5 A 0.5118231 0.5118231 0 0 1 21.78125 86.5 A 0.50606671 0.50606671 0 0 1 21.84375 86.5 A 0.50219246 0.50219246 0 0 1 21.90625 86.5 A 0.50005 0.50005 0 0 1 22 86.5 L 42 86.5 A 0.50005 0.50005 0 0 1 42.1875 86.53125 A 0.50005 0.50005 0 0 1 42.21875 86.5625 A 0.50005 0.50005 0 0 1 42.28125 86.5625 A 0.50005 0.50005 0 0 1 42.40625 86.71875 A 0.50005 0.50005 0 0 1 42.4375 86.75 A 0.50005 0.50005 0 0 1 42.46875 86.8125 A 0.50005 0.50005 0 0 1 42.46875 86.84375 A 0.50005 0.50005 0 0 1 42.5 86.90625 A 0.50005 0.50005 0 0 1 42.5 86.9375 A 0.50005 0.50005 0 0 1 42.5 87 A 0.50005 0.50005 0 0 1 42.5 87.09375 A 0.50005 0.50005 0 0 1 42.5 87.125 A 0.50005 0.50005 0 0 1 42.46875 87.1875 A 0.50005 0.50005 0 0 1 42.4375 87.28125 A 0.50005 0.50005 0 0 1 42.40625 87.3125 A 0.50005 0.50005 0 0 1 42.1875 87.46875 A 0.50005 0.50005 0 0 1 42 87.5 L 22 87.5 A 0.52871638 0.52871638 0 0 1 21.625 86.5 z " transform="scale(0.8,0.8)" id="path5203"/>
</svg>